<svg width="46" height="42" viewBox="0 0 46 42" fill="none" xmlns="http://www.w3.org/2000/svg">
<path d="M31 25C31 27.6331 30.3069 30.2197 28.9904 32.5C27.6739 34.7803 25.7803 36.6739 23.5 37.9904L16 25H31Z" stroke="black" stroke-opacity="0.64" stroke-width="2"/>
<path d="M8.5 12.0096C10.7803 10.6931 13.367 10 16 10C18.633 10 21.2197 10.6931 23.5 12.0096L16 25L8.5 12.0096Z" stroke="black" stroke-opacity="0.64" stroke-width="2"/>
<path d="M31.9616 7.49219C34.2469 8.8 36.1477 10.6863 37.4729 12.9616C38.7981 15.2368 39.5011 17.8208 39.5111 20.4538L24.5112 20.5111L31.9616 7.49219Z" stroke="black" stroke-opacity="0.64" stroke-width="2"/>
<path d="M30.5 10C31.5 10.6667 33.7 12.3 34.5 13.5C35.3 14.7 36.5 18.3333 37 20" stroke="#5C5C5C" stroke-linecap="round" stroke-linejoin="round"/>
<path d="M29 12C29.8333 12.6667 31.7 14.3 32.5 15.5C33.3 16.7 33.8333 19.3333 34 20.5" stroke="#5C5C5C" stroke-linecap="round" stroke-linejoin="round"/>
<path d="M28 14C28.6667 14.5 30.1 15.8 30.5 17C30.9 18.2 31 19.8333 31 20.5" stroke="#5C5C5C" stroke-linecap="round" stroke-linejoin="round"/>
<path d="M26.5 16.5C27 16.6667 28.1 17.2 28.5 18C28.9 18.8 28.6667 20 28.5 20.5" stroke="#5C5C5C" stroke-linecap="round" stroke-linejoin="round"/>
<path d="M8.5 37.9904C6.21971 36.6739 4.32614 34.7803 3.00962 32.5C1.69309 30.2197 1 27.633 1 25H16L8.5 37.9904Z" stroke="black" stroke-opacity="0.64" stroke-width="2"/>
<path d="M23.5 37.9904C21.2197 39.3069 18.633 40 16 40C13.3669 40 10.7803 39.3069 8.5 37.9904L16 25L23.5 37.9904Z" stroke="black" stroke-opacity="0.64" stroke-width="2"/>
<path d="M1 24.9999C1 22.3668 1.69309 19.7802 3.00962 17.4999C4.32614 15.2196 6.21971 13.326 8.5 12.0095L16 24.9999H1Z" stroke="black" stroke-opacity="0.64" stroke-width="2"/>
</svg>
